<?xml version="1.0" standalone="no"?>
<!DOCTYPE svg PUBLIC "-//W3C//DTD SVG 1.1//EN" "http://www.w3.org/Graphics/SVG/1.1/DTD/svg11.dtd">
<svg width="100%" height="100%" viewBox="0 0 32 32" version="1.1" xmlns="http://www.w3.org/2000/svg" xmlns:xlink="http://www.w3.org/1999/xlink" xml:space="preserve" style="fill-rule:evenodd;clip-rule:evenodd;stroke-linejoin:round;stroke-miterlimit:1.41421;">
    <path d="M27.586,14.212C26.66,11.751 24.284,10 21.5,10C20.859,10 20.24,10.093 19.654,10.266C18.068,7.705 15.233,6 12,6C7.095,6 3.107,9.924 3.002,14.803C1.208,15.842 0,17.783 0,20C0,23.312 2.687,26 6,26L26,26C29.312,26 32,23.307 32,20C32,17.234 30.13,14.907 27.586,14.212ZM26.003,24L5.997,24C3.794,24 2,22.209 2,20C2,18.107 3.318,16.518 5.086,16.104C5.03,15.745 5,15.376 5,15C5,11.134 8.134,8 12,8C15.162,8 17.834,10.097 18.702,12.975C19.471,12.364 20.441,12 21.5,12C23.816,12 25.725,13.75 25.973,16L26.003,16C28.206,16 30,17.791 30,20C30,22.205 28.211,24 26.003,24Z" style="fill:white;fill-rule:nonzero;"/>
</svg>
