<?xml version="1.0" standalone="no"?>
<!DOCTYPE svg PUBLIC "-//W3C//DTD SVG 1.1//EN" "http://www.w3.org/Graphics/SVG/1.1/DTD/svg11.dtd">
<svg width="100%" height="100%" viewBox="0 0 90 90" version="1.1" xmlns="http://www.w3.org/2000/svg" xmlns:xlink="http://www.w3.org/1999/xlink" xml:space="preserve" style="fill-rule:evenodd;clip-rule:evenodd;stroke-linejoin:round;stroke-miterlimit:1.41421;">
    <path d="M8.219,26.79C16.955,19.288 23.856,13.357 42.578,23.936C51.572,29.017 58.827,30.935 64.867,30.934C75.442,30.934 82.293,25.051 88.219,19.959C90.332,18.145 90.604,14.924 88.826,12.765C87.048,10.606 83.894,10.327 81.781,12.144C73.046,19.649 66.146,25.578 47.418,14.997C22.679,1.022 11.092,10.977 1.781,18.974C-0.331,20.789 -0.604,24.01 1.174,26.169C2.951,28.327 6.105,28.606 8.219,26.79ZM81.781,37.678C73.046,45.181 66.146,51.111 47.418,40.531C22.679,26.555 11.092,36.51 1.781,44.508C-0.331,46.324 -0.604,49.545 1.174,51.701C2.951,53.86 6.106,54.139 8.219,52.323C16.955,44.82 23.856,38.89 42.578,49.468C51.572,54.549 58.827,56.468 64.867,56.468C75.442,56.468 82.293,50.584 88.219,45.493C90.332,43.677 90.604,40.456 88.826,38.299C87.049,36.138 83.895,35.861 81.781,37.678ZM81.781,63.209C73.046,70.713 66.146,76.642 47.418,66.063C22.679,52.087 11.092,62.042 1.781,70.04C-0.331,71.855 -0.604,75.077 1.174,77.236C2.951,79.392 6.106,79.672 8.219,77.856C16.955,70.351 23.855,64.424 42.578,75C51.572,80.083 58.827,82 64.867,82C75.442,82 82.293,76.116 88.219,71.026C90.332,69.211 90.604,65.988 88.826,63.83C87.048,61.672 83.895,61.395 81.781,63.209Z" style="fill:white;fill-rule:nonzero;"/>
</svg>
