<?xml version="1.0" encoding="UTF-8" standalone="no"?>
<svg width="1024px" height="1024px" viewBox="0 0 1024 1024" version="1.1" xmlns="http://www.w3.org/2000/svg" xmlns:xlink="http://www.w3.org/1999/xlink" xmlns:sketch="http://www.bohemiancoding.com/sketch/ns">
    <!-- Generator: Sketch 3.3.3 (12081) - http://www.bohemiancoding.com/sketch -->
    <title>icon_512x512@2x</title>
    <desc>Created with Sketch.</desc>
    <defs></defs>
    <g id="Page-1" stroke="none" stroke-width="1" fill="none" fill-rule="evenodd" sketch:type="MSPage">
        <g id="icon_512x512@2x" sketch:type="MSArtboardGroup">
            <circle id="Oval-1" fill="#FFEB3B" sketch:type="MSShapeGroup" cx="512" cy="512" r="341"></circle>
            <path d="M122.5,73.5 L233.5,196.5" id="Line" stroke="#FFEB3B" stroke-width="10" stroke-linecap="square" sketch:type="MSShapeGroup"></path>
            <path d="M797.5,73.5 L908.5,196.5" id="Line-Copy" stroke="#FFEB3B" stroke-width="10" stroke-linecap="square" sketch:type="MSShapeGroup" transform="translate(853.000000, 135.000000) scale(-1, 1) translate(-853.000000, -135.000000) "></path>
            <path d="M122.5,853.5 L233.5,976.5" id="Line-Copy-3" stroke="#FFEB3B" stroke-width="10" stroke-linecap="square" sketch:type="MSShapeGroup" transform="translate(178.000000, 915.000000) scale(-1, 1) translate(-178.000000, -915.000000) "></path>
            <path d="M797.5,853.5 L908.5,976.5" id="Line-Copy-2" stroke="#FFEB3B" stroke-width="10" stroke-linecap="square" sketch:type="MSShapeGroup"></path>
            <path d="M511.5,45.5 L511.5,127.5" id="Line" stroke="#FFEB3B" stroke-width="7" stroke-linecap="square" sketch:type="MSShapeGroup"></path>
            <path d="M515.5,915.5 L515.5,997.5" id="Line-Copy-4" stroke="#FFEB3B" stroke-width="7" stroke-linecap="square" sketch:type="MSShapeGroup"></path>
            <path d="M993.5,510.5 L909.5,510.5" id="Line-Copy-5" stroke="#FFEB3B" stroke-width="7" stroke-linecap="square" sketch:type="MSShapeGroup" transform="translate(951.500000, 510.500000) scale(-1, 1) translate(-951.500000, -510.500000) "></path>
            <path d="M121.5,513.5 L37.5,513.5" id="Line-Copy-6" stroke="#FFEB3B" stroke-width="7" stroke-linecap="square" sketch:type="MSShapeGroup" transform="translate(79.500000, 513.500000) scale(-1, 1) translate(-79.500000, -513.500000) "></path>
        </g>
    </g>
</svg>