<?xml version="1.0" standalone="no"?>
<!DOCTYPE svg PUBLIC "-//W3C//DTD SVG 1.1//EN" "http://www.w3.org/Graphics/SVG/1.1/DTD/svg11.dtd">
<svg width="100%" height="100%" viewBox="0 0 461 461" version="1.1" xmlns="http://www.w3.org/2000/svg" xmlns:xlink="http://www.w3.org/1999/xlink" xml:space="preserve" style="fill-rule:evenodd;clip-rule:evenodd;stroke-linejoin:round;stroke-miterlimit:1.41421;">
    <path d="M250.173,223.142C278.826,223.142 305.277,238.749 319.201,263.866L320.68,266.516L323.631,265.866C374.215,254.705 419.638,293.763 419.638,342.852C419.638,386.356 384.246,421.756 340.75,421.756L78.888,421.756C35.384,421.755 0,386.355 0,342.851C0,302.322 30.352,268.596 70.613,264.394L74.23,263.549L74.23,259.899C74.23,216.395 109.622,180.995 153.126,180.995C182.942,180.995 209.88,197.569 223.438,224.239L224.966,227.238L228.193,226.303M403.974,283.22C384.693,262.752 355.747,251.559 324.818,257.339C309.114,231.149 280.786,215.005 250.173,215.005C248.539,215.005 246.905,215.216 245.263,215.306C237.126,198.309 232.452,179.361 232.452,159.284C232.452,106.107 264.381,58.79 312.868,38.656C298.074,60.977 290.319,86.785 290.319,113.853C290.319,189.262 351.657,250.6 427.066,250.6C438.34,250.6 449.509,249.218 460.409,246.487C444.95,263.776 425.482,276.189 403.974,283.22Z" style="fill:white;fill-rule:nonzero;"/>
</svg>
