<?xml version="1.0" standalone="no"?>
<!DOCTYPE svg PUBLIC "-//W3C//DTD SVG 1.1//EN" "http://www.w3.org/Graphics/SVG/1.1/DTD/svg11.dtd">
<svg width="100%" height="100%" viewBox="0 0 301 301" version="1.1" xmlns="http://www.w3.org/2000/svg" xmlns:xlink="http://www.w3.org/1999/xlink" xml:space="preserve" style="fill-rule:evenodd;clip-rule:evenodd;stroke-linejoin:round;stroke-miterlimit:1.41421;">
    <g>
        <path d="M287.166,100.421C277.664,87.204 263.12,77.387 247.298,73.476C241.989,72.111 236.453,71.415 230.845,71.415C219.314,71.415 208.588,74.45 199.864,80.161C185.788,89.021 176.155,104.071 174.105,120.318C171.407,136.962 178.462,154.633 191.624,164.277C199.179,169.993 209.094,173.268 218.825,173.268C226.157,173.268 232.934,171.457 238.4,168.052C253.336,159.061 259.895,139.475 253.026,124.387C249.501,116.718 242.599,110.74 234.571,108.412C232.21,107.716 229.817,107.33 227.44,107.248L227.152,112.682C229.126,112.823 231.068,113.226 232.934,113.884C239.222,116.027 244.47,120.977 246.978,127.172C248.234,130.147 248.871,133.383 248.8,136.527C248.729,139.948 248.142,143.092 246.945,146.388C244.579,152.61 239.978,158.055 234.267,161.356C223.998,167.589 207.643,165.685 197.096,157.184C186.691,148.906 181.567,135.314 183.732,121.656C185.532,108.243 193.582,95.946 205.292,88.744C210.845,85.23 217.361,82.941 224.16,82.108C226.983,81.749 230.779,81.695 234.445,81.977C237.942,82.287 241.478,82.88 244.676,83.69C258.034,87.127 270.299,95.553 278.344,106.844C286.709,118.168 290.669,131.804 289.782,146.321C289.195,160.419 284.359,174.626 276.163,186.342C268.004,198.101 256.256,207.696 243.055,213.369C236.996,216.023 229.985,217.943 222.223,219.064C217.42,219.744 212.264,219.864 206.02,219.956L29.93,222.295L0.113,223.459L0.222,228.898L199.237,229.029C201.532,229.029 203.833,229.029 206.117,229.051L210.37,229.078C214.205,229.078 218.746,229.007 223.358,228.485C231.718,227.452 239.621,225.374 246.822,222.317C261.747,216.111 275.105,205.412 284.428,192.19C293.854,178.984 299.5,162.83 300.321,146.752C301.476,130.293 296.679,113.399 287.166,100.421Z" style="fill:white;fill-rule:nonzero;"/>
        <path d="M106.617,209.839C107.281,209.812 108.08,209.801 108.847,209.801L114.292,209.866C115.82,209.893 117.251,209.915 118.687,209.915C121.488,209.915 125.198,209.839 129.125,209.268C136.751,208.022 143.974,204.797 149.989,199.956C162.363,190.204 168.863,173.957 166.551,158.565C164.18,142.917 150.598,129.868 135.004,128.215C126.465,127.165 118.583,129.194 112.6,133.834C106.149,138.658 101.912,145.925 100.988,153.676C99.759,161.753 102.794,170.265 108.652,175.313C114.455,180.6 124.083,182.743 131.039,180.35C136.141,178.648 140.459,174.552 142.602,169.379L137.674,167.095C135.857,170.614 132.578,173.219 128.912,174.052C127.694,174.329 126.595,174.46 125.545,174.46C121.216,174.46 116.783,172.594 113.954,169.57C110.119,165.567 108.705,160.46 109.858,154.808C110.902,149.728 114.166,144.702 118.354,141.684C122.803,138.508 127.638,137.398 133.703,138.279C144.826,139.72 154.306,149.222 155.78,160.508C157.776,171.843 152.903,184.521 143.607,192.093C139.022,195.96 133.414,198.587 127.371,199.697C124.902,200.176 122.449,200.268 119.724,200.339L15.218,203.091C10.264,203.524 5.134,203.9 0,204.275L0.19,209.709L106.617,209.839Z" style="fill:white;fill-rule:nonzero;"/>
    </g>
</svg>
