<?xml version="1.0" standalone="no"?>
<!DOCTYPE svg PUBLIC "-//W3C//DTD SVG 20010904//EN"
 "http://www.w3.org/TR/2001/REC-SVG-20010904/DTD/svg10.dtd">
<svg version="1.0" xmlns="http://www.w3.org/2000/svg"
 width="700.000000pt" height="700.000000pt" viewBox="0 0 700.000000 700.000000"
 preserveAspectRatio="xMidYMid meet">
<metadata>
Created by potrace 1.11, written by Peter Selinger 2001-2013
</metadata>
<g transform="translate(0.000000,700.000000) scale(0.100000,-0.100000)"
fill="#000000" stroke="none">
<path d="M3265 6986 c-118 -38 -192 -121 -213 -239 -5 -23 -8 -195 -7 -382 l1
-340 25 -55 c36 -77 68 -111 141 -150 55 -30 72 -34 134 -33 153 1 278 104
300 249 4 27 7 198 7 379 -1 316 -2 333 -23 389 -27 70 -90 138 -157 168 -56
25 -155 32 -208 14z"/>
<path d="M1127 6099 c-60 -14 -112 -45 -155 -95 -82 -92 -100 -215 -49 -327
21 -46 69 -100 265 -295 131 -132 257 -251 278 -264 208 -130 478 30 462 273
-8 112 -27 138 -301 412 -204 204 -258 253 -304 274 -60 28 -132 35 -196 22z"/>
<path d="M5406 6090 c-27 -11 -65 -30 -85 -44 -66 -46 -497 -489 -522 -536
-20 -38 -24 -59 -24 -135 0 -81 3 -95 30 -144 81 -147 262 -203 406 -125 55
30 527 496 553 546 40 77 49 171 25 248 -15 44 -61 112 -95 139 -82 64 -198
85 -288 51z"/>
<path d="M3210 5472 c-584 -47 -1104 -365 -1417 -867 -73 -118 -181 -359 -197
-442 -2 -10 -11 -45 -20 -78 -8 -33 -18 -78 -21 -100 -3 -22 -8 -46 -10 -53
-10 -29 -19 -177 -18 -302 2 -336 94 -654 272 -940 279 -449 750 -762 1266
-840 118 -18 147 -20 290 -20 134 1 142 1 235 14 96 13 113 17 210 41 743 188
1282 816 1366 1590 5 55 6 316 0 355 -20 142 -31 199 -53 285 -13 55 -31 114
-38 130 -7 17 -16 41 -20 55 -28 94 -165 344 -242 438 -24 30 -43 57 -43 62 0
4 -52 60 -116 124 -205 207 -420 347 -681 442 -90 32 -217 68 -278 78 -16 2
-50 8 -75 11 -25 4 -54 9 -65 11 -25 6 -297 10 -345 6z"/>
<path d="M229 3943 c-141 -36 -231 -159 -224 -306 6 -120 72 -214 185 -265 55
-24 56 -24 410 -25 264 0 365 3 395 13 214 68 290 315 150 486 -23 27 -60 55
-101 75 l-66 33 -350 1 c-250 0 -364 -3 -399 -12z"/>
<path d="M5732 3948 c-97 -16 -183 -84 -225 -177 -30 -64 -29 -177 0 -243 31
-68 98 -131 169 -158 57 -22 71 -22 404 -23 190 0 359 3 375 7 224 56 314 316
170 491 -23 28 -59 56 -101 76 l-66 33 -341 1 c-188 0 -361 -3 -385 -7z"/>
<path d="M1510 2208 c-47 -18 -87 -53 -288 -252 -128 -127 -248 -251 -267
-276 -67 -91 -79 -215 -31 -313 78 -160 278 -218 431 -126 16 10 139 128 273
261 272 271 293 301 298 415 5 116 -54 222 -157 278 -73 39 -179 45 -259 13z"/>
<path d="M4967 2213 c-70 -24 -138 -89 -172 -164 -24 -54 -27 -71 -23 -134 8
-119 23 -140 292 -410 133 -133 261 -253 286 -267 196 -113 447 25 452 249 3
129 -18 159 -304 445 -183 183 -259 253 -295 269 -63 30 -169 35 -236 12z"/>
<path d="M3254 1501 c-69 -23 -97 -43 -142 -100 -64 -80 -67 -102 -66 -502 l0
-355 32 -67 c40 -81 98 -132 180 -157 156 -49 316 29 373 180 20 52 21 73 22
406 0 396 -3 414 -73 503 -74 93 -210 132 -326 92z"/>
</g>
</svg>
