<?xml version="1.0" standalone="no"?>
<!DOCTYPE svg PUBLIC "-//W3C//DTD SVG 1.1//EN" "http://www.w3.org/Graphics/SVG/1.1/DTD/svg11.dtd">
<svg width="100%" height="100%" viewBox="0 0 23 23" version="1.1" xmlns="http://www.w3.org/2000/svg" xmlns:xlink="http://www.w3.org/1999/xlink" xml:space="preserve" style="fill-rule:evenodd;clip-rule:evenodd;stroke-linejoin:round;stroke-miterlimit:1.41421;">
    <g>
        <path d="M4.63,6.045C5.024,6.438 5.657,6.444 6.051,6.05C6.441,5.66 6.444,5.029 6.044,4.629L4.644,3.229C4.249,2.835 3.616,2.829 3.223,3.223C2.833,3.614 2.83,4.244 3.23,4.644L4.63,6.045Z" style="fill:rgb(255,235,59);fill-rule:nonzero;"/>
        <circle cx="11.003" cy="11" r="6" style="fill:rgb(255,235,59);"/>
        <path d="M4,11.003C4,10.451 3.556,10.003 2.99,10.003L1.009,10.003C0.452,10.003 0,10.447 0,11.003C0,11.556 0.444,12.003 1.009,12.003L2.99,12.003C3.548,12.003 4,11.56 4,11.003Z" style="fill:rgb(255,235,59);fill-rule:nonzero;"/>
        <path d="M20.997,10.003L19.017,10.003C18.458,10.003 18.006,10.447 18.006,11.003C18.006,11.556 18.451,12.003 19.017,12.003L20.997,12.003C21.554,12.003 22.006,11.56 22.006,11.003C22.006,10.451 21.562,10.003 20.997,10.003Z" style="fill:rgb(255,235,59);fill-rule:nonzero;"/>
        <path d="M4.629,15.962L3.229,17.362C2.835,17.757 2.829,18.391 3.222,18.783C3.613,19.172 4.243,19.175 4.643,18.776L6.043,17.376C6.438,16.981 6.444,16.349 6.05,15.955C5.659,15.565 5.029,15.562 4.629,15.962Z" style="fill:rgb(255,235,59);fill-rule:nonzero;"/>
        <path d="M11.003,4C11.556,4 12.003,3.556 12.003,2.99L12.003,1.01C12.003,0.452 11.56,0 11.003,0C10.45,0 10.003,0.444 10.003,1.01L10.003,2.99C10.003,3.548 10.447,4 11.003,4Z" style="fill:rgb(255,235,59);fill-rule:nonzero;"/>
        <path d="M11.003,18.006C10.45,18.006 10.003,18.451 10.003,19.017L10.003,20.997C10.003,21.556 10.447,22.006 11.003,22.006C11.556,22.006 12.003,21.564 12.003,20.997L12.003,19.017C12.003,18.458 11.56,18.006 11.003,18.006Z" style="fill:rgb(255,235,59);fill-rule:nonzero;"/>
        <path d="M17.376,6.045L18.776,4.644C19.171,4.249 19.176,3.617 18.783,3.223C18.391,2.833 17.762,2.83 17.362,3.23L15.962,4.63C15.567,5.024 15.562,5.658 15.955,6.051C16.347,6.441 16.976,6.444 17.376,6.045Z" style="fill:rgb(255,235,59);fill-rule:nonzero;"/>
        <path d="M17.376,15.962C16.981,15.567 16.349,15.562 15.955,15.955C15.565,16.347 15.561,16.976 15.962,17.376L17.362,18.776C17.757,19.171 18.389,19.176 18.783,18.783C19.172,18.393 19.175,17.762 18.776,17.362L17.376,15.962Z" style="fill:rgb(255,235,59);fill-rule:nonzero;"/>
    </g>
</svg>
