<?xml version="1.0" standalone="no"?>
<!DOCTYPE svg PUBLIC "-//W3C//DTD SVG 1.1//EN" "http://www.w3.org/Graphics/SVG/1.1/DTD/svg11.dtd">
<svg width="100%" height="100%" viewBox="0 0 615 615" version="1.1" xmlns="http://www.w3.org/2000/svg" xmlns:xlink="http://www.w3.org/1999/xlink" xml:space="preserve" style="fill-rule:evenodd;clip-rule:evenodd;stroke-linejoin:round;stroke-miterlimit:1.41421;">
    <g>
        <path d="M402.643,151.788L453.746,100.679C459.761,94.651 460.056,84.455 453.143,77.53C447.127,71.566 436.136,71.053 429.698,77.53L379.198,128.639C372.76,135.18 372.286,144.863 379.198,151.789C386.11,158.713 395.729,158.713 402.643,151.788Z" style="fill:rgb(255,253,0);fill-rule:nonzero;"/>
        <path d="M265.879,105.232C275.196,105.232 282.712,97.665 282.712,88.367L282.712,16.544C282.712,7.182 275.197,0 265.879,0C256.561,0 249.347,7.182 249.347,16.544L249.347,88.366C249.341,97.665 256.555,105.232 265.879,105.232Z" style="fill:rgb(255,253,0);fill-rule:nonzero;"/>
        <path d="M130.007,151.788C136.965,158.649 146.777,158.906 153.452,151.788C159.711,145.119 159.467,134.666 153.452,128.638L102.35,77.529C96.335,71.565 85.818,71.565 78.905,77.529C71.992,84.775 72.089,94.587 78.905,101.32L130.007,151.788Z" style="fill:rgb(255,253,0);fill-rule:nonzero;"/>
        <path d="M17.888,281.965L90.031,281.067C99.349,280.939 106.563,273.821 106.563,264.522C106.563,255.224 99.349,247.978 90.031,247.978L17.888,247.978C8.571,248.876 1.356,255.801 1.356,265.1C1.356,273.821 8.571,282.093 17.888,281.965Z" style="fill:rgb(255,253,0);fill-rule:nonzero;"/>
        <path d="M594.722,393.738C582.397,371.229 565.865,353.21 544.825,339.679C539.714,301.459 524.292,269.139 498.834,242.27C468.982,210.784 428.493,193.277 385.509,193.277L373.184,193.277C361.461,175.835 345.834,161.983 326.891,151.787C307.954,141.591 287.812,136.46 265.868,136.46C230.4,136.46 199.965,149.029 174.789,174.039C149.767,198.92 137.217,229.06 137.217,264.522C137.217,278.053 143.232,298.509 155.25,326.147C138.115,340.255 125.79,358.595 118.877,380.847L111.977,380.847C81.62,380.847 55.469,392.262 33.826,415.091C12.183,437.984 1.359,465.622 1.359,497.75C1.359,526.606 10.221,551.744 27.811,573.548C45.696,595.671 68.07,609.074 95.446,613.498C101.743,614.524 106.867,614.717 110.176,614.717L476.6,614.717C484.718,614.717 491.329,614.076 496.139,612.922C529.806,608.112 557.951,591.44 580.601,562.967C602.436,535.585 613.363,503.457 613.363,467.098C613.356,440.936 607.046,416.311 594.722,393.738ZM198.848,197.51C217.412,179.042 239.729,169.807 265.88,169.807C293.833,169.807 317.579,180.067 336.817,200.459C289.626,216.427 251.753,254.582 234.618,303.896C228.308,302.998 223.197,302.678 219.888,302.678C206.96,302.678 194.635,305.115 182.316,310.18C174.8,296.65 171.196,281.644 171.196,264.522C171.19,238.359 180.437,215.722 198.848,197.51ZM554.443,542.576C537.308,563.93 515.966,576.499 490.118,580.411C487.713,581.308 483.205,581.63 476.594,581.63L415.57,581.63L398.435,581.63L110.173,581.63C107.768,581.63 103.26,581.053 101.156,581.053C82.219,578.038 66.585,568.741 53.664,552.773C40.736,536.87 34.426,518.53 34.426,497.752C34.426,474.602 41.858,454.723 56.973,438.563C72.223,422.275 90.64,414.195 111.981,414.195C124.909,414.195 136.933,417.21 148.354,423.557C148.053,421.441 147.751,418.427 147.751,414.195C147.751,392.841 154.664,374.501 168.791,359.174C182.918,343.848 199.751,336.025 219.894,336.025C233.72,336.025 246.346,339.936 258.069,347.76C261.974,313.516 275.877,284.723 300.149,261.509C324.575,238.167 352.753,226.367 385.514,226.367C420.085,226.367 449.84,239.577 474.491,265.741C499.141,291.841 512.062,323.455 512.967,360.713C533.11,369.113 549.038,382.965 561.363,402.203C573.688,421.441 579.999,443.052 579.999,467.099C579.991,496.276 571.578,521.222 554.443,542.576Z" style="fill:rgb(255,248,0);fill-rule:nonzero;"/>
    </g>
</svg>
