<?xml version="1.0" standalone="no"?>
<!DOCTYPE svg PUBLIC "-//W3C//DTD SVG 1.1//EN" "http://www.w3.org/Graphics/SVG/1.1/DTD/svg11.dtd">
<svg width="100%" height="100%" viewBox="0 0 612 612" version="1.1" xmlns="http://www.w3.org/2000/svg" xmlns:xlink="http://www.w3.org/1999/xlink" xml:space="preserve" style="fill-rule:evenodd;clip-rule:evenodd;stroke-linejoin:round;stroke-miterlimit:1.41421;">
    <path id="Moon" d="M604.851,370.662C601.351,367.812 597.067,366.378 592.745,366.378C589.532,366.378 586.3,367.181 583.374,368.807C547.381,388.888 505.918,400.363 461.758,400.363C323.599,400.363 211.641,288.405 211.641,150.247C211.641,106.087 223.116,64.605 243.197,28.612C247.022,21.746 246.296,13.236 241.342,7.135C237.651,2.543 232.124,0 226.405,0C224.511,0 222.599,0.287 220.744,0.86C93.104,40.182 0.003,158.948 0.003,299.364C0.003,471.757 140.266,612 312.659,612C453.055,612 571.842,518.899 611.143,391.278C613.457,383.763 610.97,375.596 604.851,370.662ZM312.659,554.625C171.899,554.625 57.379,440.124 57.379,299.364C57.379,217.031 96.165,142.501 159.2,95.434C155.93,113.469 154.266,131.829 154.266,150.246C154.266,319.789 292.196,457.737 461.758,457.737C480.195,457.737 498.535,456.074 516.57,452.803C469.503,515.858 394.992,554.625 312.659,554.625Z" style="fill:white;fill-rule:nonzero;"/>
</svg>
