<?xml version="1.0" standalone="no"?>
<!DOCTYPE svg PUBLIC "-//W3C//DTD SVG 1.1//EN" "http://www.w3.org/Graphics/SVG/1.1/DTD/svg11.dtd">
<svg width="100%" height="100%" viewBox="0 0 515 515" version="1.1" xmlns="http://www.w3.org/2000/svg" xmlns:xlink="http://www.w3.org/1999/xlink" xml:space="preserve" style="fill-rule:evenodd;clip-rule:evenodd;stroke-linejoin:round;stroke-miterlimit:1.41421;">
    <g>
        <path d="M405.962,47.612C398.925,47.612 392.288,49.209 386.274,51.924C374.253,27.961 349.525,11.465 320.885,11.465C302.257,11.465 285.303,18.484 272.384,29.949C250.658,11.398 221.961,0 190.396,0C123.573,0 69.344,50.614 67.967,113.517C42.913,125.145 25.509,150.447 25.509,179.871C25.509,213.875 48.737,242.391 80.178,250.595L418.757,252.919C457.935,251.514 489.29,219.393 489.29,179.871C489.29,151.652 473.302,127.21 449.902,114.999C452.512,109.07 454.023,102.558 454.023,95.664C454.024,69.127 432.508,47.612 405.962,47.612Z" style="fill:white;fill-rule:nonzero;"/>
        <path d="M141.818,372.364C150.319,355.926 151.342,281.004 151.342,281.004C151.342,281.004 90.792,325.145 82.291,341.582C73.79,358.02 80.226,378.235 96.664,386.736C113.102,395.237 133.317,388.802 141.818,372.364Z" style="fill:white;fill-rule:nonzero;"/>
        <path d="M266.13,372.364C274.631,355.926 275.654,281.004 275.654,281.004C275.654,281.004 215.104,325.145 206.603,341.582C198.102,358.02 204.538,378.235 220.975,386.736C237.414,395.237 257.629,388.802 266.13,372.364Z" style="fill:white;fill-rule:nonzero;"/>
        <path d="M354.861,386.736C371.299,395.237 391.514,388.801 400.015,372.364C408.516,355.926 409.539,281.004 409.539,281.004C409.539,281.004 348.989,325.145 340.488,341.582C331.988,358.021 338.423,378.235 354.861,386.736Z" style="fill:white;fill-rule:nonzero;"/>
        <path d="M125.361,511.049C141.799,519.55 162.014,513.114 170.515,496.677C179.016,480.239 180.039,405.317 180.039,405.317C180.039,405.317 119.49,449.458 110.988,465.895C102.487,482.333 108.923,502.548 125.361,511.049Z" style="fill:white;fill-rule:nonzero;"/>
        <path d="M249.673,511.049C266.111,519.55 286.326,513.114 294.827,496.677C303.328,480.239 304.351,405.317 304.351,405.317C304.351,405.317 243.801,449.458 235.3,465.895C226.8,482.333 233.235,502.548 249.673,511.049Z" style="fill:white;fill-rule:nonzero;"/>
    </g>
</svg>
