<?xml version="1.0" standalone="no"?>
<!DOCTYPE svg PUBLIC "-//W3C//DTD SVG 1.1//EN" "http://www.w3.org/Graphics/SVG/1.1/DTD/svg11.dtd">
<svg width="100%" height="100%" viewBox="0 0 107 107" version="1.1" xmlns="http://www.w3.org/2000/svg" xmlns:xlink="http://www.w3.org/1999/xlink" xml:space="preserve" style="fill-rule:evenodd;clip-rule:evenodd;stroke-linejoin:round;stroke-miterlimit:1.41421;">
    <path id="_x31__5_" d="M99.466,68.363L97.7,63.747L84.598,68.762L78.3,65.065L96.439,57.568L94.661,53.262L96.454,48.964L78.34,41.406L84.651,37.73L97.737,42.789L99.517,38.179L90.118,34.545L100.389,28.563L97.903,24.292L87.632,30.274L89.113,20.303L84.225,19.577L82.163,33.459L75.854,37.134L78.224,17.645L73.923,17.122L71.307,13.667L55.663,25.522L55.663,18.219L66.618,9.452L63.532,5.592L55.663,11.889L55.663,0L50.722,0L50.722,11.889L42.853,5.592L39.767,9.452L50.722,18.219L50.722,25.523L35.078,13.667L32.509,17.06L28.282,17.56L30.586,37.057L24.288,33.36L22.274,19.471L17.385,20.181L18.832,30.157L8.582,24.14L6.081,28.403L16.331,34.42L6.919,38.022L8.685,42.638L21.788,37.623L28.086,41.32L9.947,48.818L11.725,53.123L9.932,57.422L28.046,64.981L21.735,68.657L8.65,63.596L6.868,68.205L16.267,71.839L5.997,77.821L8.483,82.093L18.753,76.111L17.273,86.082L22.161,86.808L24.222,72.926L30.532,69.251L28.162,88.74L32.463,89.263L35.079,92.718L50.723,80.862L50.723,88.165L39.768,96.932L42.854,100.792L50.723,94.495L50.723,106.384L55.664,106.384L55.664,94.497L63.533,100.794L66.619,96.934L55.664,88.167L55.664,80.864L71.308,92.72L73.877,89.327L78.104,88.827L75.8,69.33L82.098,73.027L84.112,86.916L89.001,86.206L87.554,76.23L97.804,82.247L100.305,77.983L90.055,71.966L99.466,68.363ZM93.919,53.262L72.954,61.927L58.089,53.201L72.984,44.526L93.919,53.262ZM73.145,18.475L70.496,40.254L55.663,48.893L55.663,31.723L73.145,18.475ZM33.378,18.58L50.722,31.724L50.722,48.878L35.932,40.197L33.378,18.58ZM12.466,53.124L33.431,44.459L48.296,53.185L33.402,61.86L12.466,53.124ZM33.24,87.91L35.889,66.131L50.722,57.491L50.722,74.662L33.24,87.91ZM73.007,87.806L55.663,74.662L55.663,57.509L70.453,66.19L73.007,87.806Z" style="fill:white;"/>
</svg>
